<?xml version="1.0" encoding="UTF-8"?> <!-- Generator: Adobe Illustrator 23.0.4, SVG Export Plug-In . SVG Version: 6.00 Build 0) --> <svg xmlns="http://www.w3.org/2000/svg" xmlns:xlink="http://www.w3.org/1999/xlink" id="Layer_1" x="0px" y="0px" viewBox="0 0 396.01 396" style="enable-background:new 0 0 396.01 396;" xml:space="preserve"> <style type="text/css"> .st0{fill:#FFFFFF;} .st1{stroke:#FFFFFF;stroke-width:1.5;stroke-miterlimit:10;} .st2{fill:#FFFFFF;stroke:#070606;stroke-width:1.5;stroke-miterlimit:10;} </style> <g> <g> <path d="M198,0.75C89.07,0.75,0.76,89.06,0.75,197.99l394.5-0.34C395.07,88.88,306.83,0.75,198,0.75z"></path> <path class="st0" d="M0,198.74v-0.75C0.01,88.82,88.83,0,198,0c52.83,0,102.51,20.56,139.89,57.88 c37.38,37.32,58.02,86.96,58.11,139.78l0,0.75l-0.75,0L0,198.74z M198,1.5C89.91,1.5,1.91,89.24,1.5,197.24l393-0.33 c-0.28-52.14-20.74-101.11-57.66-137.97C299.74,21.9,250.43,1.5,198,1.5z"></path> </g> <g> <path class="st0" d="M0.75,197.99C0.75,198,0.75,198,0.75,197.99c0,108.95,88.31,197.26,197.25,197.26 c108.94,0,197.25-88.31,197.25-197.25c0-0.12,0-0.23,0-0.34L0.75,197.99z"></path> <path d="M198,396C88.82,396,0,307.18,0,198v-0.75l0.75-0.01L396,196.91l0,1.1C396.01,307.18,307.18,396,198,396z M1.5,198.74 C1.9,306.76,89.9,394.5,198,394.5c108.22,0,196.29-87.93,196.5-196.1L1.5,198.74z"></path> </g> <g> <path class="st0" d="M232.44,197.64h4.15c0.01-0.16,0.02-0.31,0.02-0.47c0-4.91-4.2-8.9-9.37-8.9c-5.17,0-9.37,3.99-9.37,8.9 c0,0.16,0.02,0.31,0.02,0.47l-173.46,0v99.5h311.38v-99.5L232.44,197.64z"></path> <path d="M355.82,98.15H44.44v99.49l171.48,0c0.26,5.78,5.23,10.41,11.32,10.41c6.09,0,11.07-4.63,11.33-10.41l117.25,0V98.15z M227.24,206.08c-5.17,0-9.37-3.99-9.37-8.9s4.2-8.9,9.37-8.9c5.17,0,9.37,3.99,9.37,8.9S232.41,206.08,227.24,206.08z"></path> <g> <path class="st0" d="M82.2,143.11c0,0,17.27-3.04,15.89-20.03c0,0,1.11-17.68-13.95-22.24c0,0-9.43-3.72-18.67-2.69H44.44v99.49 h27.68c0,0,29.15,2.67,28.74-28.7C100.86,168.95,103.76,148.64,82.2,143.11z M65.47,111.89h3.47c0,0,8.57-1.38,9.39,7.05 c0,0,1.52,8.29-0.97,13.4c0,0-1.5,4.12-6.22,4.97h-5.68V111.89z M78.2,179.31c0,0-2.11,4.97-12.73,4.01v-32.47h4.03 c0,0,8.01-0.28,10.22,9.26C79.72,160.1,81.79,173.78,78.2,179.31z"></path> </g> <polygon class="st0" points="110.78,97.97 131.84,98.15 131.84,183.95 152.62,183.95 152.62,197.7 110.78,197.64 "></polygon> <g> <path class="st0" d="M227.24,188.28c-5.17,0-9.37,3.99-9.37,8.9s4.2,8.9,9.37,8.9c5.17,0,9.37-3.99,9.37-8.9 S232.41,188.28,227.24,188.28z"></path> <path class="st0" d="M217.68,191.35l-21.3-93.21h-18.81l-22.79,99.49h21.35l4.25-21.09h13.12l4.43,21.09h17.88 c0-0.01,0-0.02,0-0.02l0.12,0c-0.01-0.15-0.02-0.29-0.02-0.44C215.9,195.03,216.56,193.04,217.68,191.35z M181.64,163.8 l5.38-35.09l5.2,35.09H181.64z"></path> </g> <path class="st0" d="M265.67,98.15h-24.95c0,0-15,4.03-17.33,25.11l-0.43,45.17c0,0,0.04,9.49,4.63,17.89 c5.97,0.17,10.79,4.77,11,10.48c0.69,0.31,1.4,0.6,2.16,0.84h24.76c0,0,17.41-3.82,17.41-33.79v-7.31h-20.8v12.45 c0,0,0.89,15.57-8.66,14.95c-9.55-0.62-9.2-11.3-9.2-11.3v-49.03v-1.7c0,0,0.3-10.32,9.08-10.15c8.78,0.18,8.53,11.53,8.53,11.53 v14.86h21.05v-11.39C282.9,126.77,283.63,104.06,265.67,98.15z"></path> <polygon class="st0" points="292.47,197.64 292.47,98.15 313.95,98.15 313.95,135.59 330.17,98.15 353.97,98.15 332.46,139.07 355.38,197.64 333.43,197.65 317.46,152.44 313.95,161.02 313.95,197.64 "></polygon> <polygon points="44.44,197.64 59.76,297.14 78.99,297.14 88.15,233.2 97.67,297.14 116.72,297.14 133.02,197.67 113.38,197.65 106.1,262.32 96.76,197.64 80.27,197.65 70.75,262.32 63.61,197.65 "></polygon> <polygon points="141.02,297.14 141.02,197.68 163.6,197.49 163.95,238.45 179.72,238.45 179.72,197.65 202.87,197.7 202.87,297.14 179.72,297.14 179.72,252.64 163.95,252.64 163.95,297.14 "></polygon> <path d="M215.8,297.14v-89.09c0,0,10.79,10.93,22.8,0v89.09H215.8z"></path> <polygon points="246.06,197.65 301.35,197.64 301.35,212.64 285.27,212.64 285.27,297.14 262.39,297.14 262.39,212.64 246.06,212.64 "></polygon> <polygon points="308.72,197.65 355.82,197.65 355.82,211.57 331.6,211.57 331.6,238.45 348.44,238.45 348.44,252.64 331.6,252.64 331.6,283.24 355.82,283.24 355.82,297.14 308.72,297.14 "></polygon> <path d="M232.91,201.36c-0.62,0.07-1.2-0.22-1.64-0.55c1.05-1.2,1.86-2.6,1.59-3.64h-3.08c0,0,0.24,1.06-0.57,2.28 c-0.26-0.24-0.52-0.51-0.79-0.82c0,0-0.76-0.74-1.63-1.71c0.94-0.65,1.93-1.44,2.28-2.08c0,0,2.81-2.55,0.14-4.11 c0,0-2.13-1.37-4.82-0.76c0,0-3.07,0.83-2.53,3.21c0,0,0.31,1.6,1.67,3.64c-0.03,0.01-0.06,0.03-0.09,0.05 c0,0-2.74,1.77-2.41,3.73c0,0-0.07,3.1,4.39,3.1c0,0,2.41,0.05,4.09-1.23c0.02-0.02,0.05-0.04,0.07-0.06 c1.16,0.98,3.33,1.28,3.33,1.28V201.36z M225.4,195.22c0,0-1.32-2.43-0.3-3.21c0,0,2.75-0.88,1.96,1.72c0,0-0.49,0.84-1.47,1.73 C225.52,195.38,225.46,195.3,225.4,195.22z M224.73,198.37c0.76,0.86,1.71,1.75,2.91,2.58c-0.44,0.29-0.96,0.56-1.59,0.81 C226.04,201.77,222.9,202.27,224.73,198.37z"></path> </g> </g> </svg> 